<svg xmlns="http://www.w3.org/2000/svg" width="20" height="20" fill="none" viewBox="0 0 20 20"><path fill="#fff" fill-opacity=".8" d="M9.721 11.987c.503 0 .822-.314.85-.716 0-.03 0-.079.009-.118.027-.5.347-.834.94-1.256C12.425 9.269 13 8.7 13 7.571 13 5.942 11.63 5 10.005 5c-1.562 0-2.63.765-2.914 1.688a1.62 1.62 0 0 0-.091.51c0 .481.347.775.767.775.539 0 .658-.294.94-.628.293-.49.677-.775 1.215-.775.722 0 1.197.442 1.197 1.1 0 .598-.384.922-1.16 1.49-.649.492-1.123.992-1.123 1.875v.108c0 .56.32.844.885.844ZM9.703 15c.585 0 1.069-.451 1.069-1.08 0-.618-.475-1.079-1.069-1.079-.593 0-1.077.461-1.077 1.08 0 .618.484 1.079 1.077 1.079Z"/></svg>