<svg width="20" height="20" viewBox="0 0 20 20" fill="none" xmlns="http://www.w3.org/2000/svg">
<rect width="20" height="20" rx="5" fill="url(#paint0_linear_29_2852)"/>
<g filter="url(#filter0_d_29_2852)">
<path d="M10.0035 17.0155C10.1714 17.0155 10.3323 17.0013 10.5072 16.9871L10.899 17.7394C10.9829 17.9311 11.1718 18.0233 11.3887 17.9949C11.5916 17.9595 11.7315 17.8033 11.7595 17.5904L11.8784 16.7458C12.2073 16.6607 12.5291 16.5329 12.8369 16.3981L13.4526 16.9588C13.5995 17.1078 13.8024 17.1291 14.0052 17.0226C14.1801 16.9162 14.2501 16.7246 14.2151 16.5116L14.0402 15.6884C14.3131 15.4896 14.5789 15.2696 14.8308 15.0283L15.5864 15.3477C15.7892 15.4329 15.9781 15.3832 16.1321 15.2058C16.258 15.0567 16.279 14.8438 16.167 14.6593L15.7263 13.9425C15.9152 13.6657 16.0761 13.3605 16.223 13.0411L17.0625 13.0837C17.2654 13.0979 17.4473 12.9773 17.5173 12.7785C17.5872 12.5798 17.5173 12.374 17.3564 12.2463L16.7057 11.7211C16.7897 11.3946 16.8526 11.0539 16.8806 10.6991L17.6712 10.4436C17.8741 10.3726 18 10.2094 18 9.99646C18 9.78354 17.8741 9.62031 17.6712 9.54934L16.8806 9.29384C16.8526 8.93898 16.7827 8.60542 16.7057 8.27185L17.3564 7.74666C17.5173 7.62601 17.5802 7.42729 17.5173 7.22857C17.4473 7.02275 17.2654 6.9021 17.0625 6.9163L16.223 6.94468C16.0761 6.63241 15.9152 6.33433 15.7263 6.05044L16.167 5.32653C16.272 5.1562 16.258 4.94329 16.1321 4.79425C15.9781 4.61682 15.7892 4.56714 15.5864 4.65231L14.8238 4.96458C14.5789 4.73037 14.3131 4.50327 14.0402 4.31164L14.2151 3.48837C14.2501 3.26836 14.1801 3.07674 13.9983 2.97738C13.8024 2.87092 13.5995 2.88512 13.4526 3.04125L12.8369 3.59483C12.5291 3.45289 12.2073 3.33933 11.8784 3.24707L11.7595 2.4167C11.7315 2.20379 11.5916 2.04765 11.3887 2.00507C11.1718 1.97668 10.9899 2.06894 10.899 2.24637L10.5072 3.00577C10.3323 2.99157 10.1714 2.98448 10.0035 2.98448C9.8216 2.98448 9.66069 2.99157 9.48579 3.00577L9.09401 2.24637C9.01006 2.06894 8.82116 1.97668 8.60429 2.01217C8.4014 2.04765 8.26148 2.20379 8.23349 2.4167L8.11456 3.24707C7.79274 3.33933 7.47092 3.45289 7.1561 3.59483L6.54744 3.04125C6.39353 2.89221 6.19064 2.87092 5.99475 2.97738C5.81985 3.07674 5.74289 3.26836 5.77788 3.48837L5.95278 4.31164C5.67993 4.50327 5.41408 4.73037 5.16922 4.96458L4.40665 4.65231C4.21076 4.56714 4.01487 4.61682 3.86795 4.79425C3.73502 4.94329 3.72103 5.1562 3.82597 5.32653L4.27372 6.05044C4.08483 6.33433 3.92392 6.63241 3.77 6.94468L2.93747 6.9163C2.72759 6.9021 2.54569 7.02275 2.48273 7.22857C2.41277 7.42729 2.46874 7.62601 2.63664 7.74666L3.29427 8.27185C3.21032 8.60542 3.14036 8.93898 3.11937 9.29384L2.32882 9.54934C2.11893 9.62031 2 9.77645 2 9.99646C2 10.2094 2.11893 10.3726 2.32882 10.4436L3.11937 10.6991C3.14036 11.0539 3.21032 11.3946 3.29427 11.7211L2.64364 12.2463C2.47573 12.3669 2.41976 12.5727 2.48273 12.7714C2.54569 12.9773 2.72759 13.0979 2.93747 13.0837L3.77 13.0411C3.91692 13.3605 4.08483 13.6657 4.27372 13.9425L3.82597 14.6664C3.71404 14.8438 3.73502 15.0567 3.86795 15.2058C4.01487 15.3832 4.21076 15.4329 4.40665 15.3477L5.16922 15.0283C5.41408 15.2696 5.67993 15.4896 5.95278 15.6884L5.77788 16.5116C5.74289 16.7246 5.81286 16.9162 5.99475 17.0226C6.19064 17.1291 6.39353 17.1078 6.54744 16.9588L7.1561 16.3981C7.47092 16.5329 7.78575 16.6607 8.11456 16.7529L8.23349 17.5904C8.26148 17.8033 8.4014 17.9595 8.61128 17.9949C8.82116 18.0233 9.01006 17.9311 9.09401 17.7465L9.48579 16.9871C9.66069 17.0013 9.8216 17.0155 10.0035 17.0155ZM11.8295 9.43578C11.4867 8.52025 10.7871 8.02345 9.96152 8.02345C9.84259 8.02345 9.71666 8.03764 9.49978 8.08732L7.61084 4.79425C8.33144 4.45359 9.13599 4.26196 9.9965 4.26196C12.9558 4.26196 15.2785 6.51885 15.5444 9.43578H11.8295ZM4.42763 10.0036C4.42763 8.10152 5.28815 6.43369 6.65238 5.39041L8.55531 8.69058C8.18452 9.10222 8.00962 9.55643 8.00962 10.0248C8.00962 10.472 8.17053 10.8978 8.55531 11.3307L6.59641 14.5741C5.26716 13.5308 4.42763 11.8772 4.42763 10.0036ZM9.12199 10.0177C9.12199 9.53514 9.52077 9.16609 9.96852 9.16609C10.4373 9.16609 10.822 9.53514 10.822 10.0177C10.822 10.4862 10.4373 10.8765 9.96852 10.8765C9.52077 10.8765 9.12199 10.4862 9.12199 10.0177ZM9.9965 15.738C9.115 15.738 8.28946 15.5393 7.55488 15.1774L9.49279 11.9553C9.70267 11.9979 9.84259 12.012 9.96152 12.012C10.7941 12.012 11.4867 11.5011 11.8295 10.5642H15.5444C15.2785 13.4812 12.9558 15.738 9.9965 15.738Z" fill="white"/>
</g>
<defs>
<filter id="filter0_d_29_2852" x="1" y="1" width="18" height="18" filterUnits="userSpaceOnUse" color-interpolation-filters="sRGB">
<feFlood flood-opacity="0" result="BackgroundImageFix"/>
<feColorMatrix in="SourceAlpha" type="matrix" values="0 0 0 0 0 0 0 0 0 0 0 0 0 0 0 0 0 0 127 0" result="hardAlpha"/>
<feOffset/>
<feGaussianBlur stdDeviation="0.5"/>
<feComposite in2="hardAlpha" operator="out"/>
<feColorMatrix type="matrix" values="0 0 0 0 0 0 0 0 0 0 0 0 0 0 0 0 0 0 0.07 0"/>
<feBlend mode="normal" in2="BackgroundImageFix" result="effect1_dropShadow_29_2852"/>
<feBlend mode="normal" in="SourceGraphic" in2="effect1_dropShadow_29_2852" result="shape"/>
</filter>
<linearGradient id="paint0_linear_29_2852" x1="10" y1="0" x2="10" y2="20" gradientUnits="userSpaceOnUse">
<stop stop-color="#C1C1C6"/>
<stop offset="1" stop-color="#98989D"/>
</linearGradient>
</defs>
</svg>
