<svg width="20" height="20" viewBox="0 0 20 20" fill="none" xmlns="http://www.w3.org/2000/svg">
<rect width="20" height="20" rx="5" fill="url(#paint0_linear_29_2847)"/>
<g filter="url(#filter0_d_29_2847)">
<path d="M4.67973 14.5518H15.3258C16.5363 14.5518 17.1668 13.9268 17.1668 12.722V7.27795C17.1668 6.07316 16.5363 5.44824 15.3258 5.44824H4.67973C3.46368 5.44824 2.83313 6.07316 2.83313 7.27795V12.722C2.83313 13.9268 3.46368 14.5518 4.67973 14.5518ZM5.09634 8.67979C4.92745 8.67979 4.82611 8.57283 4.82611 8.40393V7.86346C4.82611 7.69456 4.92745 7.59323 5.09634 7.59323H5.63681C5.80571 7.59323 5.91267 7.69456 5.91267 7.86346V8.40393C5.91267 8.57283 5.80571 8.67979 5.63681 8.67979H5.09634ZM6.94857 8.67979C6.77405 8.67979 6.67271 8.57283 6.67271 8.40393V7.86346C6.67271 7.69456 6.77405 7.59323 6.94857 7.59323H7.48341C7.65794 7.59323 7.75927 7.69456 7.75927 7.86346V8.40393C7.75927 8.57283 7.65794 8.67979 7.48341 8.67979H6.94857ZM8.79517 8.67979C8.63191 8.67979 8.52494 8.57283 8.52494 8.40393V7.86346C8.52494 7.69456 8.63191 7.59323 8.79517 7.59323H9.33564C9.50454 7.59323 9.61151 7.69456 9.61151 7.86346V8.40393C9.61151 8.57283 9.50454 8.67979 9.33564 8.67979H8.79517ZM10.6474 8.67979C10.4785 8.67979 10.3715 8.57283 10.3715 8.40393V7.86346C10.3715 7.69456 10.4785 7.59323 10.6474 7.59323H11.1879C11.3511 7.59323 11.4581 7.69456 11.4581 7.86346V8.40393C11.4581 8.57283 11.3511 8.67979 11.1879 8.67979H10.6474ZM12.5109 8.67979C12.3307 8.67979 12.2238 8.57283 12.2238 8.40393V7.86346C12.2238 7.69456 12.3307 7.59323 12.5109 7.59323H13.0401C13.209 7.59323 13.3103 7.69456 13.3103 7.86346V8.40393C13.3103 8.57283 13.209 8.67979 13.0401 8.67979H12.5109ZM14.3462 8.67979C14.1773 8.67979 14.0704 8.57283 14.0704 8.40393V7.86346C14.0704 7.69456 14.1773 7.59323 14.3462 7.59323H14.8867C15.0556 7.59323 15.1569 7.69456 15.1569 7.86346V8.40393C15.1569 8.57283 15.0556 8.67979 14.8867 8.67979H14.3462ZM5.09634 10.5433C4.92745 10.5433 4.82611 10.4363 4.82611 10.2674V9.72695C4.82611 9.55805 4.92745 9.45109 5.09634 9.45109H5.63681C5.80571 9.45109 5.91267 9.55805 5.91267 9.72695V10.2674C5.91267 10.4363 5.80571 10.5433 5.63681 10.5433H5.09634ZM6.94857 10.5433C6.77405 10.5433 6.67271 10.4363 6.67271 10.2674V9.72695C6.67271 9.55805 6.77405 9.45109 6.94857 9.45109H7.48341C7.65794 9.45109 7.75927 9.55805 7.75927 9.72695V10.2674C7.75927 10.4363 7.65794 10.5433 7.48341 10.5433H6.94857ZM8.79517 10.5433C8.63191 10.5433 8.52494 10.4363 8.52494 10.2674V9.72695C8.52494 9.55805 8.63191 9.45109 8.79517 9.45109H9.33564C9.50454 9.45109 9.61151 9.55805 9.61151 9.72695V10.2674C9.61151 10.4363 9.50454 10.5433 9.33564 10.5433H8.79517ZM10.6474 10.5433C10.4785 10.5433 10.3715 10.4363 10.3715 10.2674V9.72695C10.3715 9.55805 10.4785 9.45109 10.6474 9.45109H11.1879C11.3511 9.45109 11.4581 9.55805 11.4581 9.72695V10.2674C11.4581 10.4363 11.3511 10.5433 11.1879 10.5433H10.6474ZM12.5109 10.5433C12.3307 10.5433 12.2238 10.4363 12.2238 10.2674V9.72695C12.2238 9.55805 12.3307 9.45109 12.5109 9.45109H13.0401C13.209 9.45109 13.3103 9.55805 13.3103 9.72695V10.2674C13.3103 10.4363 13.209 10.5433 13.0401 10.5433H12.5109ZM14.3462 10.5433C14.1773 10.5433 14.0704 10.4363 14.0704 10.2674V9.72695C14.0704 9.55805 14.1773 9.45109 14.3462 9.45109H14.8867C15.0556 9.45109 15.1569 9.55805 15.1569 9.72695V10.2674C15.1569 10.4363 15.0556 10.5433 14.8867 10.5433H14.3462ZM5.09634 12.4011C4.92745 12.4011 4.82611 12.2998 4.82611 12.1309V11.5904C4.82611 11.4215 4.92745 11.3146 5.09634 11.3146H5.63681C5.80571 11.3146 5.91267 11.4215 5.91267 11.5904V12.1309C5.91267 12.2998 5.80571 12.4011 5.63681 12.4011H5.09634ZM6.99924 12.4011C6.79657 12.4011 6.67271 12.2829 6.67271 12.0802V11.6411C6.67271 11.4328 6.79657 11.3146 6.99924 11.3146H12.9838C13.1921 11.3146 13.3103 11.4328 13.3103 11.6411V12.0802C13.3103 12.2829 13.1921 12.4011 12.9838 12.4011H6.99924ZM14.3462 12.4011C14.1773 12.4011 14.0704 12.2998 14.0704 12.1309V11.5904C14.0704 11.4215 14.1773 11.3146 14.3462 11.3146H14.8867C15.0556 11.3146 15.1569 11.4215 15.1569 11.5904V12.1309C15.1569 12.2998 15.0556 12.4011 14.8867 12.4011H14.3462Z" fill="white"/>
</g>
<defs>
<filter id="filter0_d_29_2847" x="1.83313" y="4.44824" width="16.3336" height="11.1035" filterUnits="userSpaceOnUse" color-interpolation-filters="sRGB">
<feFlood flood-opacity="0" result="BackgroundImageFix"/>
<feColorMatrix in="SourceAlpha" type="matrix" values="0 0 0 0 0 0 0 0 0 0 0 0 0 0 0 0 0 0 127 0" result="hardAlpha"/>
<feOffset/>
<feGaussianBlur stdDeviation="0.5"/>
<feComposite in2="hardAlpha" operator="out"/>
<feColorMatrix type="matrix" values="0 0 0 0 0 0 0 0 0 0 0 0 0 0 0 0 0 0 0.07 0"/>
<feBlend mode="normal" in2="BackgroundImageFix" result="effect1_dropShadow_29_2847"/>
<feBlend mode="normal" in="SourceGraphic" in2="effect1_dropShadow_29_2847" result="shape"/>
</filter>
<linearGradient id="paint0_linear_29_2847" x1="10" y1="0" x2="10" y2="20" gradientUnits="userSpaceOnUse">
<stop stop-color="#8ECBB5"/>
<stop offset="1" stop-color="#308A6A"/>
</linearGradient>
</defs>
</svg>
